<svg xmlns="http://www.w3.org/2000/svg" xmlns:xlink="http://www.w3.org/1999/xlink" viewBox="0 0 1366 769"><defs><style>.cls-1{fill:url(#linear-gradient);}.cls-2{fill:url(#linear-gradient-2);}.cls-3{fill:none;}.cls-4{fill:url(#linear-gradient-3);}.cls-5{fill:url(#linear-gradient-4);}.cls-6{fill:url(#linear-gradient-5);}.cls-7{fill:url(#linear-gradient-6);}</style><linearGradient id="linear-gradient" x1="345.97" y1="-199.75" x2="1020.03" y2="967.75" gradientUnits="userSpaceOnUse"><stop offset="0.34" stop-color="#0275d8"/><stop offset="0.59" stop-color="#1d87ea"/><stop offset="0.83" stop-color="#2f93f6"/><stop offset="1" stop-color="#3597fa"/></linearGradient><linearGradient id="linear-gradient-2" x1="130.34" y1="733.36" x2="108.15" y2="802.64" gradientUnits="userSpaceOnUse"><stop offset="0" stop-color="#0275d8"/><stop offset="0.06" stop-color="#0f7ee1"/><stop offset="0.18" stop-color="#2089ec"/><stop offset="0.32" stop-color="#2c91f4"/><stop offset="0.51" stop-color="#3396f9"/><stop offset="1" stop-color="#3597fa"/></linearGradient><linearGradient id="linear-gradient-3" x1="260.79" y1="-46.08" x2="331.41" y2="76.25" gradientUnits="userSpaceOnUse"><stop offset="0.34" stop-color="#0275d8"/><stop offset="0.55" stop-color="#0577da"/><stop offset="0.72" stop-color="#0f7ee1"/><stop offset="0.87" stop-color="#1f89ec"/><stop offset="1" stop-color="#3597fa"/></linearGradient><linearGradient id="linear-gradient-4" x1="46.5" y1="-24.54" x2="162.16" y2="175.79" xlink:href="#linear-gradient-3"/><linearGradient id="linear-gradient-5" x1="633.78" y1="630.95" x2="748.39" y2="829.46" gradientUnits="userSpaceOnUse"><stop offset="0.15" stop-color="#0275d8"/><stop offset="0.15" stop-color="#0375d8"/><stop offset="0.32" stop-color="#1984e7"/><stop offset="0.5" stop-color="#298ff2"/><stop offset="0.71" stop-color="#3295f8"/><stop offset="1" stop-color="#3597fa"/></linearGradient><linearGradient id="linear-gradient-6" x1="678.6" y1="419.89" x2="793.21" y2="618.4" gradientTransform="translate(295.58 1199.32) rotate(-90.03)" xlink:href="#linear-gradient-5"/></defs><g id="Layer_1" data-name="Layer 1"><rect class="cls-1" width="1366" height="768"/><line class="cls-2" y1="768" x2="238.49" y2="768"/><line class="cls-3" y1="617" y2="768"/></g><g id="Layer_2" data-name="Layer 2"><line class="cls-3" y1="167" y2="114.47"/><line class="cls-3" x1="265" x2="132.66"/><path class="cls-4" d="M398.13,0A112.61,112.61,0,0,1,387,26.75,112.5,112.5,0,0,1,233.29,67.92,112.09,112.09,0,0,1,181,0Z"/><path class="cls-5" d="M233.81,36.6A169.38,169.38,0,0,1,64.43,206,168.52,168.52,0,0,1,4,194.86V0H229.83A168.51,168.51,0,0,1,233.81,36.6Z"/><path class="cls-6" d="M853.11,769H549.41a151.86,151.86,0,1,1,303.7,0Z"/><path class="cls-7" d="M853,301.06l.18,303.7a151.86,151.86,0,1,1-.18-303.7Z"/></g></svg>